<?xml version="1.0" encoding="utf-8"?>
<!-- Generator: Adobe Illustrator 19.1.0, SVG Export Plug-In . SVG Version: 6.00 Build 0)  -->
<svg version="1.1" id="Layer_1" xmlns="http://www.w3.org/2000/svg" xmlns:xlink="http://www.w3.org/1999/xlink" x="0px" y="0px"
	 viewBox="0 0 338.1 58.9" style="enable-background:new 0 0 338.1 58.9;" xml:space="preserve">
<style type="text/css">
	.st0{fill:#06945F;}
</style>
<g>
	<g>
		<path class="st0" d="M34.9,10c0-5.5-4.5-10-10-10c-5.5,0-10,4.5-10,10s4.5,10,10,10C30.5,19.9,34.9,15.5,34.9,10z M24.8,24.3
			c-2.9,0-5.2,2.4-5.2,5.2v24.2c0,2.9,2.4,5.2,5.2,5.2c2.9,0,5.2-2.4,5.2-5.2V29.5C30.1,26.7,27.7,24.3,24.8,24.3z M16,21.3l-12.4-6
			c-1.5-0.7-3.3,0.2-3.6,1.8c-0.2,1.1,0.4,2.2,1.4,2.7l12.4,6c1.5,0.7,3.3-0.2,3.6-1.8C17.6,22.9,17,21.8,16,21.3z M45.3,15.3
			l-12.4,6c-1,0.5-1.6,1.6-1.4,2.7c0.3,1.7,2.1,2.6,3.6,1.8l12.4-6c1-0.5,1.6-1.6,1.4-2.7C48.6,15.5,46.8,14.6,45.3,15.3z
			 M70.8,29.7c0-2.3,2.2-3.6,5.6-3.6c2.4,0,5.7,0.8,9,2.6c0.6,0.3,1.4,0.1,1.7-0.6l1.4-3c0.3-0.6,0.1-1.3-0.5-1.6
			c-3.1-1.8-7.1-3-11.2-3c-7.5,0-12.6,3.7-12.6,9.7c0,12.3,18.7,8,18.7,15.8c0,2.7-2.4,4.2-6.5,4.2c-3.3,0-7.2-1.4-10.6-4.1
			c-0.6-0.5-1.5-0.3-1.8,0.4l-1.4,2.8c-0.3,0.5-0.1,1.1,0.3,1.5c3.5,2.9,8.3,4.8,13.4,4.8c7.6,0,13.1-3.8,13.1-10
			C89.5,33.2,70.8,37.3,70.8,29.7z M110.1,20.9H97.5c-0.7,0-1.2,0.5-1.2,1.2v32.2c0,0.7,0.5,1.2,1.2,1.2h3.4c0.7,0,1.2-0.5,1.2-1.2
			v-8c0-0.7,0.5-1.2,1.2-1.2h6.8c8.7,0,13.7-4.6,13.7-12.4C123.8,25.2,118.8,20.9,110.1,20.9z M109.9,39.8h-6.5
			c-0.7,0-1.2-0.5-1.2-1.2V27.3c0-0.7,0.5-1.2,1.2-1.2h6.5c5.4,0,8.4,2.2,8.4,6.7C118.2,37.6,115.2,39.8,109.9,39.8z M144.6,21.6
			c-0.2-0.4-0.6-0.7-1.1-0.7h-4.4c-0.5,0-0.9,0.3-1.1,0.7l-14.2,32.2c-0.4,0.8,0.2,1.7,1.1,1.7h3.4c0.5,0,0.9-0.3,1.1-0.7l2.7-6.3
			c0.2-0.5,0.6-0.7,1.1-0.7H149c0.5,0,0.9,0.3,1.1,0.7l2.7,6.3c0.2,0.5,0.6,0.7,1.1,0.7h3.6c0.9,0,1.5-0.9,1.1-1.7L144.6,21.6z
			 M145.8,42.5h-9.4c-0.9,0-1.5-0.9-1.1-1.7l4.7-11.1c0.4-1,1.8-1,2.3,0l4.7,11.1C147.2,41.6,146.7,42.5,145.8,42.5z M186.2,43.4
			c3.8-2,5.9-5.7,5.9-10.7c0-7.5-5.1-11.8-14-11.8h-12.8c-0.7,0-1.2,0.5-1.2,1.2v32.2c0,0.7,0.5,1.2,1.2,1.2h3.4
			c0.7,0,1.2-0.5,1.2-1.2v-8c0-0.7,0.5-1.2,1.2-1.2h7c0.3,0,0.6,0,0.9,0c0.4,0,0.8,0.2,1.1,0.6l5.6,9.3c0.2,0.4,0.6,0.6,1,0.6h3.7
			c1,0,1.6-1.1,1-1.9l-5.7-8.5C185.3,44.5,185.5,43.7,186.2,43.4z M178.1,39.8h-7c-0.7,0-1.2-0.5-1.2-1.2V27.3
			c0-0.7,0.5-1.2,1.2-1.2h7c5.4,0,8.4,2.2,8.4,6.7C186.5,37.6,183.4,39.8,178.1,39.8z M216.3,36.5c-0.3-0.5-0.3-1.1,0.1-1.5l10.9-12
			c0.7-0.8,0.2-2-0.9-2h-3.6c-0.3,0-0.7,0.1-0.9,0.4l-14.1,15.2c-0.8,0.8-2.1,0.3-2.1-0.8V22.1c0-0.7-0.5-1.2-1.2-1.2h-3.4
			c-0.7,0-1.2,0.5-1.2,1.2v32.2c0,0.7,0.5,1.2,1.2,1.2h3.4c0.7,0,1.2-0.5,1.2-1.2v-7.1c0-0.3,0.1-0.6,0.3-0.8l4.6-5
			c0.5-0.6,1.4-0.5,1.9,0.1L222.6,55c0.2,0.3,0.6,0.5,1,0.5h4c1,0,1.6-1.1,1-1.9L216.3,36.5z M270.6,16.1c-0.6,0-1.3,0.2-1.7,0.7
			c-0.9,0.9-0.9,2.2,0,3.1l0,0c4,4,5.6,14.8,1.3,25.3c-1.8,4.5-4.5,7.5-6.9,7.5c-1.3,0-1.7-0.3-2-0.7c-1.9-2.3-0.7-10.3,0.9-18.6
			c0.2-1.2-0.6-2.3-1.7-2.6c-1.2-0.3-2.3,0.4-2.7,1.7C254,46.6,252,52.7,248,52.7c-1.1,0-1.6-0.4-1.9-0.8l-0.1-0.1
			c-0.5-0.6-2-3,0-10.9l1.1-3.5c3.9-0.8,6.8-3,8.6-4.7c2.9-2.6,5.3-6.1,6.3-9.5l0-0.1c0.3-1.2-0.3-2.3-1.5-2.8
			c-0.6-0.2-1.2-0.1-1.7,0.1c-0.6,0.3-1,0.8-1.2,1.4c-1.2,3.7-4.7,8.1-8.9,10.1l2.3-7.5l0,0c2.5-9.6-1.2-14.2-5.5-15.4
			c-5.3-1.4-12.4,2.4-14.5,10.2c-1.4,5.2-0.7,9.7,2,13.3c2.2,2.8,5.5,4.5,9.2,5l-0.6,1.9c-0.1,0.1-0.1,0.3-0.1,0.4
			c-1.7,6.9-1.5,11.8,0.8,14.8l0,0c1.4,1.6,3.3,2.5,5.5,2.5c4,0,6.5-2.5,8.2-5.8c0.3,1.4,0.8,2.5,1.6,3.4c1.3,1.5,3.2,2.4,5.5,2.4
			c4.3,0,8.4-3.8,11.1-10.4c4.1-9.7,4.4-23.6-2.2-30.1C271.8,16.4,271.3,16.1,270.6,16.1z M236.7,29.7c-1.8-2.3-2.2-5.5-1.1-9.2l0,0
			c1-4,4.4-7.2,7.6-7.2c0.4,0,0.9,0,1.3,0.1c2.8,0.9,3.7,4.6,2.4,9.7l-3.2,10C240.8,33,238.2,31.8,236.7,29.7z M286.1,31.3
			c1.7,0,3-1.3,3-3c0-1.7-1.3-3-3-3c-1.7,0-3,1.4-3,3C283.1,30,284.4,31.3,286.1,31.3z M334.2,42.4c-1.3-0.3-2.4,0.5-2.7,1.8
			c-0.7,3.5-2.8,8.6-5,8.6c-0.7,0-1-0.3-1.2-0.5c-0.8-1.1-1-3.7-0.4-6.9c1.4-2.8,2.9-5.8,4.6-9c6.9-13.4,10.2-19.9,8.1-23.4
			c-0.7-1.1-1.8-1.8-3.3-1.8c-4.5,0-7.5,8.3-9.2,15.3l-2.1,7.9c-1.4-1.5-3.4-2.4-5.6-2.4c-5.5,0-11,5-13,11.7c0,0.1-0.1,0.2-0.1,0.3
			l0,0c-0.4,1.5-2.7,8.7-8.1,8.7c-0.7,0-1-0.2-1.2-0.5c-0.8-1.1-1-3.7-0.4-7c1.5-2.9,3.1-6,4.6-9c6.8-13,10.2-20,8.1-23.4
			c-0.7-1.1-1.8-1.8-3.3-1.8c-4.7,0-7.8,9.6-9.2,15.3l-4.3,16.4c0,0.1-0.1,0.4-0.1,0.6c-0.1,0.2-0.2,0.4-0.2,0.6
			c-0.7,3-3.2,8.7-5.8,8.7c-0.6,0-0.7-0.2-0.8-0.3c-0.9-1.3-0.5-5.4,0.4-8.4l2.4-9.2c0.2-0.6,0.1-1.2-0.2-1.8
			c-0.3-0.5-0.8-0.9-1.4-1.1c-0.6-0.2-1.2-0.1-1.7,0.2c-0.5,0.3-0.9,0.8-1.1,1.4l-2.4,9.2c-0.8,2.6-2.2,8.9,0.3,12.4
			c1,1.4,2.6,2.1,4.4,2.1c2.6,0,4.7-1.6,6.3-3.6c0.2,0.5,0.5,1,0.8,1.4c1.2,1.5,2.8,2.2,4.8,2.2c3.9,0,6.7-2,8.7-4.4
			c0.2,0.5,0.5,1,0.9,1.4c1.5,1.9,3.6,2.9,6.1,2.9c3.1,0,6.2-1.6,8.8-4.3c0.3,0.8,0.6,1.5,1.1,2.1c1.1,1.5,2.8,2.3,4.8,2.3
			c2.5,0,7-1.6,9.5-12.1l0-0.2C336.2,43.7,335.4,42.6,334.2,42.4z M333.3,17c-0.5,1.7-1.6,4.3-3,7.1C331.4,20.9,332.5,18.4,333.3,17
			z M303,17c-0.5,1.7-1.6,4.3-3,7.1C301,20.9,302.1,18.4,303,17z M320.4,44L320.4,44c-1.2,4.6-5.3,8.7-8.7,8.7c-1,0-1.8-0.4-2.4-1.2
			c-1.1-1.4-1.3-3.8-0.6-6.3c1.2-4.6,5.3-8.7,8.7-8.7c1,0,1.8,0.4,2.4,1.2C320.8,39.1,321,41.5,320.4,44z"/>
	</g>
</g>
</svg>
